<mxfile host="app.diagrams.net" modified="2021-06-13T16:17:36.481Z" agent="5.0 (Macintosh; Intel Mac OS X 10_15_6) AppleWebKit/537.36 (KHTML, like Gecko) Chrome/91.0.4472.77 Safari/537.36" etag="DrpTJxKgWcAH3J90ZCmy" version="14.6.13" type="github">
  <diagram id="51DOlPabaa6X145rpJyG" name="FlowMonitor">
    <mxGraphModel dx="695" dy="496" grid="1" gridSize="10" guides="1" tooltips="1" connect="1" arrows="1" fold="1" page="1" pageScale="1" pageWidth="850" pageHeight="1100" math="0" shadow="0">
      <root>
        <mxCell id="0" />
        <mxCell id="1" parent="0" />
        <mxCell id="10otxvOtBx6WHgq3yDoF-1" value="1040" style="shape=process;whiteSpace=wrap;html=1;backgroundOutline=1;" vertex="1" parent="1">
          <mxGeometry x="400" y="420" width="80" height="20" as="geometry" />
        </mxCell>
        <mxCell id="10otxvOtBx6WHgq3yDoF-3" value="RLT" style="rounded=1;whiteSpace=wrap;html=1;" vertex="1" parent="1">
          <mxGeometry x="400" y="400" width="80" height="20" as="geometry" />
        </mxCell>
        <mxCell id="10otxvOtBx6WHgq3yDoF-4" value="FMC" style="ellipse;whiteSpace=wrap;html=1;aspect=fixed;" vertex="1" parent="1">
          <mxGeometry x="420" y="340" width="40" height="40" as="geometry" />
        </mxCell>
        <mxCell id="10otxvOtBx6WHgq3yDoF-6" value="Sole Prop&lt;br&gt;Schedule C" style="ellipse;whiteSpace=wrap;html=1;" vertex="1" parent="1">
          <mxGeometry x="160" y="280" width="80" height="40" as="geometry" />
        </mxCell>
        <mxCell id="10otxvOtBx6WHgq3yDoF-7" value="LLC&lt;br&gt;Schedule C" style="ellipse;whiteSpace=wrap;html=1;" vertex="1" parent="1">
          <mxGeometry x="250" y="280" width="80" height="40" as="geometry" />
        </mxCell>
        <mxCell id="10otxvOtBx6WHgq3yDoF-8" value="W-2" style="ellipse;whiteSpace=wrap;html=1;" vertex="1" parent="1">
          <mxGeometry x="110" y="280" width="40" height="60" as="geometry" />
        </mxCell>
        <mxCell id="10otxvOtBx6WHgq3yDoF-9" value="" style="endArrow=classic;html=1;exitX=0.13;exitY=0.77;exitDx=0;exitDy=0;entryX=0.5;entryY=0;entryDx=0;entryDy=0;exitPerimeter=0;" edge="1" parent="1" source="10otxvOtBx6WHgq3yDoF-11" target="10otxvOtBx6WHgq3yDoF-6">
          <mxGeometry width="50" height="50" relative="1" as="geometry">
            <mxPoint x="230" y="245" as="sourcePoint" />
            <mxPoint x="210" y="270" as="targetPoint" />
          </mxGeometry>
        </mxCell>
        <mxCell id="10otxvOtBx6WHgq3yDoF-10" value="" style="endArrow=classic;html=1;entryX=0.5;entryY=0;entryDx=0;entryDy=0;exitX=0.96;exitY=0.7;exitDx=0;exitDy=0;exitPerimeter=0;" edge="1" parent="1" source="10otxvOtBx6WHgq3yDoF-11" target="10otxvOtBx6WHgq3yDoF-7">
          <mxGeometry width="50" height="50" relative="1" as="geometry">
            <mxPoint x="280" y="240" as="sourcePoint" />
            <mxPoint x="220" y="280" as="targetPoint" />
          </mxGeometry>
        </mxCell>
        <mxCell id="10otxvOtBx6WHgq3yDoF-11" value="1099" style="ellipse;shape=cloud;whiteSpace=wrap;html=1;" vertex="1" parent="1">
          <mxGeometry x="210" y="240" width="60" height="35" as="geometry" />
        </mxCell>
        <mxCell id="10otxvOtBx6WHgq3yDoF-12" value="" style="endArrow=classic;html=1;entryX=0;entryY=0.5;entryDx=0;entryDy=0;exitX=0.5;exitY=1;exitDx=0;exitDy=0;" edge="1" parent="1" source="10otxvOtBx6WHgq3yDoF-16" target="10otxvOtBx6WHgq3yDoF-1">
          <mxGeometry width="50" height="50" relative="1" as="geometry">
            <mxPoint x="310" y="350" as="sourcePoint" />
            <mxPoint x="450" y="280" as="targetPoint" />
          </mxGeometry>
        </mxCell>
        <mxCell id="10otxvOtBx6WHgq3yDoF-13" value="" style="endArrow=classic;html=1;entryX=0;entryY=0.5;entryDx=0;entryDy=0;exitX=0.5;exitY=1;exitDx=0;exitDy=0;" edge="1" parent="1" source="10otxvOtBx6WHgq3yDoF-15" target="10otxvOtBx6WHgq3yDoF-1">
          <mxGeometry width="50" height="50" relative="1" as="geometry">
            <mxPoint x="210" y="350" as="sourcePoint" />
            <mxPoint x="410" y="440" as="targetPoint" />
          </mxGeometry>
        </mxCell>
        <mxCell id="10otxvOtBx6WHgq3yDoF-14" value="" style="endArrow=classic;html=1;exitX=0.5;exitY=1;exitDx=0;exitDy=0;" edge="1" parent="1" source="10otxvOtBx6WHgq3yDoF-8">
          <mxGeometry width="50" height="50" relative="1" as="geometry">
            <mxPoint x="130" y="360" as="sourcePoint" />
            <mxPoint x="400" y="430" as="targetPoint" />
          </mxGeometry>
        </mxCell>
        <mxCell id="10otxvOtBx6WHgq3yDoF-15" value="Expense" style="rounded=1;whiteSpace=wrap;html=1;" vertex="1" parent="1">
          <mxGeometry x="170" y="320" width="60" height="20" as="geometry" />
        </mxCell>
        <mxCell id="10otxvOtBx6WHgq3yDoF-16" value="Expense" style="rounded=1;whiteSpace=wrap;html=1;" vertex="1" parent="1">
          <mxGeometry x="260" y="320" width="60" height="20" as="geometry" />
        </mxCell>
        <mxCell id="10otxvOtBx6WHgq3yDoF-17" value="" style="endArrow=classic;html=1;entryX=0.5;entryY=0;entryDx=0;entryDy=0;exitX=0.5;exitY=1;exitDx=0;exitDy=0;" edge="1" parent="1" source="10otxvOtBx6WHgq3yDoF-4" target="10otxvOtBx6WHgq3yDoF-3">
          <mxGeometry width="50" height="50" relative="1" as="geometry">
            <mxPoint x="400" y="310" as="sourcePoint" />
            <mxPoint x="450" y="260" as="targetPoint" />
          </mxGeometry>
        </mxCell>
        <mxCell id="10otxvOtBx6WHgq3yDoF-18" value="S-Corp&lt;br&gt;Pay W2&lt;br&gt;Draws&lt;br&gt;save SE Tax" style="ellipse;whiteSpace=wrap;html=1;" vertex="1" parent="1">
          <mxGeometry x="320" y="200" width="120" height="80" as="geometry" />
        </mxCell>
        <mxCell id="10otxvOtBx6WHgq3yDoF-19" value="Expense" style="rounded=1;whiteSpace=wrap;html=1;" vertex="1" parent="1">
          <mxGeometry x="350" y="280" width="60" height="20" as="geometry" />
        </mxCell>
        <mxCell id="10otxvOtBx6WHgq3yDoF-20" value="Match&lt;br&gt;401K&lt;br&gt;Move" style="shape=step;perimeter=stepPerimeter;whiteSpace=wrap;html=1;fixedSize=1;" vertex="1" parent="1">
          <mxGeometry x="480" y="160" width="80" height="40" as="geometry" />
        </mxCell>
        <mxCell id="10otxvOtBx6WHgq3yDoF-21" value="" style="curved=1;endArrow=classic;html=1;exitX=1;exitY=0;exitDx=0;exitDy=0;entryX=0.025;entryY=0.05;entryDx=0;entryDy=0;entryPerimeter=0;" edge="1" parent="1" source="10otxvOtBx6WHgq3yDoF-8" target="10otxvOtBx6WHgq3yDoF-20">
          <mxGeometry width="50" height="50" relative="1" as="geometry">
            <mxPoint x="400" y="290" as="sourcePoint" />
            <mxPoint x="450" y="240" as="targetPoint" />
            <Array as="points">
              <mxPoint x="280" y="170" />
              <mxPoint x="410" y="150" />
            </Array>
          </mxGeometry>
        </mxCell>
        <mxCell id="10otxvOtBx6WHgq3yDoF-22" value="Solo&lt;br&gt;401K" style="shape=step;perimeter=stepPerimeter;whiteSpace=wrap;html=1;fixedSize=1;" vertex="1" parent="1">
          <mxGeometry x="480" y="200" width="80" height="40" as="geometry" />
        </mxCell>
        <mxCell id="10otxvOtBx6WHgq3yDoF-24" value="ROTH" style="shape=step;perimeter=stepPerimeter;whiteSpace=wrap;html=1;fixedSize=1;" vertex="1" parent="1">
          <mxGeometry x="480" y="240" width="80" height="40" as="geometry" />
        </mxCell>
        <mxCell id="10otxvOtBx6WHgq3yDoF-25" value="IRA" style="shape=step;perimeter=stepPerimeter;whiteSpace=wrap;html=1;fixedSize=1;" vertex="1" parent="1">
          <mxGeometry x="480" y="280" width="80" height="40" as="geometry" />
        </mxCell>
        <mxCell id="10otxvOtBx6WHgq3yDoF-26" value="Pay Family&lt;br&gt;Services" style="endArrow=classic;html=1;entryX=0;entryY=0.5;entryDx=0;entryDy=0;exitX=0.5;exitY=1;exitDx=0;exitDy=0;" edge="1" parent="1" source="10otxvOtBx6WHgq3yDoF-19" target="10otxvOtBx6WHgq3yDoF-4">
          <mxGeometry width="50" height="50" relative="1" as="geometry">
            <mxPoint x="400" y="290" as="sourcePoint" />
            <mxPoint x="450" y="240" as="targetPoint" />
          </mxGeometry>
        </mxCell>
        <mxCell id="10otxvOtBx6WHgq3yDoF-28" value="LLC Rental&lt;br&gt;Investment" style="shape=step;perimeter=stepPerimeter;whiteSpace=wrap;html=1;fixedSize=1;" vertex="1" parent="1">
          <mxGeometry x="600" y="160" width="120" height="40" as="geometry" />
        </mxCell>
        <mxCell id="10otxvOtBx6WHgq3yDoF-29" value="LLC Passive&lt;br&gt;Investment" style="shape=step;perimeter=stepPerimeter;whiteSpace=wrap;html=1;fixedSize=1;" vertex="1" parent="1">
          <mxGeometry x="600" y="200" width="120" height="40" as="geometry" />
        </mxCell>
        <mxCell id="10otxvOtBx6WHgq3yDoF-30" value="Home&lt;br&gt;Investment" style="shape=step;perimeter=stepPerimeter;whiteSpace=wrap;html=1;fixedSize=1;" vertex="1" parent="1">
          <mxGeometry x="600" y="280" width="120" height="40" as="geometry" />
        </mxCell>
        <mxCell id="10otxvOtBx6WHgq3yDoF-31" value="Life Insurance&lt;br&gt;Investment" style="shape=step;perimeter=stepPerimeter;whiteSpace=wrap;html=1;fixedSize=1;" vertex="1" parent="1">
          <mxGeometry x="600" y="240" width="120" height="40" as="geometry" />
        </mxCell>
        <mxCell id="10otxvOtBx6WHgq3yDoF-32" value="HRA&lt;br&gt;&amp;nbsp;to pay for services" style="rounded=1;whiteSpace=wrap;html=1;" vertex="1" parent="1">
          <mxGeometry x="480" y="330" width="80" height="60" as="geometry" />
        </mxCell>
      </root>
    </mxGraphModel>
  </diagram>
</mxfile>
